<?xml version="1.0" encoding="utf-8"?>
<!-- Generator: Adobe Illustrator 26.0.3, SVG Export Plug-In . SVG Version: 6.00 Build 0)  -->
<svg version="1.1" id="Layer_1" xmlns="http://www.w3.org/2000/svg" xmlns:xlink="http://www.w3.org/1999/xlink" x="0px" y="0px"
	 viewBox="0 0 225.3 191.5" style="enable-background:new 0 0 225.3 191.5;" xml:space="preserve">
<style type="text/css">
	.st0{enable-background:new    ;}
	.st1{stroke:#000000;stroke-width:0.25;stroke-miterlimit:10;}
</style>
<g>
	<g class="st0">
		<path d="M49.3,184h-3.5l-0.7,2.4H44l2.9-10.9h1.2l2.9,10.9h-1.1L49.3,184z M49,182.9l-1.5-5.5l-1.5,5.5H49z"/>
		<path d="M64.3,181c-0.5,0.6-1.2,0.9-2.1,0.9h-1.6v4.6h-1.1v-11h2.6c0.9,0,1.6,0.3,2.1,0.9c0.5,0.6,0.7,1.4,0.7,2.3
			C65,179.6,64.7,180.4,64.3,181z M63.5,180.2c0.3-0.3,0.4-0.8,0.4-1.5c0-1.4-0.6-2-1.7-2h-1.6v4h1.6
			C62.7,180.7,63.2,180.5,63.5,180.2z"/>
		<path d="M78.3,184h-3.5l-0.7,2.4H73l2.9-10.9h1.2l2.9,10.9h-1.1L78.3,184z M78,182.9l-1.5-5.5l-1.5,5.5H78z"/>
		<path d="M92.8,186.5l-1.9-4.5h-1.3v4.5h-1.1v-11h2.6c0.6,0,1.1,0.1,1.6,0.4s0.7,0.7,0.9,1.1s0.3,1,0.3,1.7c0,0.8-0.2,1.4-0.5,2
			s-0.8,1-1.4,1.1l2,4.6L92.8,186.5L92.8,186.5z M89.6,180.8h1.6c0.6,0,1-0.2,1.3-0.6c0.3-0.4,0.4-0.9,0.4-1.5
			c0-0.7-0.1-1.2-0.4-1.5s-0.7-0.5-1.3-0.5h-1.6V180.8z"/>
		<path d="M107.8,175.5v1.2h-2.2v9.8h-1.1v-9.8h-2.2v-1.2H107.8z"/>
		<path d="M124.6,175.6v10.9h-1.1v-8.1l-2.7,8.1h-0.7l-2.7-8.1v8.1h-1.1v-10.9h1.1l3,9l3-9H124.6z"/>
		<path d="M134.7,176.7v3.7h3v1.2h-3v3.8h3.3v1.2h-4.4v-11h4.4v1.2L134.7,176.7L134.7,176.7z"/>
		<path d="M153.2,186.5h-1.1l-4.3-8.7v8.7h-1.1v-11h1.1l4.3,8.7v-8.7h1.1V186.5z"/>
		<path d="M167.2,175.5v1.2H165v9.8h-1.1v-9.8h-2.2v-1.2H167.2z"/>
		<path d="M176.8,186.2c-0.4-0.3-0.8-0.6-1-1.1s-0.4-1-0.4-1.6h1.1c0,0.5,0.2,0.9,0.5,1.3s0.7,0.5,1.2,0.5s0.9-0.2,1.2-0.5
			s0.4-0.8,0.4-1.3c0-0.4-0.1-0.8-0.3-1c-0.2-0.3-0.4-0.5-0.6-0.6s-0.6-0.3-1-0.4c-0.5-0.2-1-0.4-1.3-0.6s-0.6-0.5-0.8-0.9
			s-0.3-0.9-0.3-1.6c0-0.6,0.1-1.1,0.3-1.6s0.5-0.8,0.9-1.1s0.9-0.4,1.4-0.4c0.8,0,1.4,0.3,1.9,0.8s0.8,1.2,0.8,2h-1.2
			c0-0.4-0.2-0.8-0.5-1.1s-0.7-0.5-1.1-0.5c-0.4,0-0.8,0.2-1.1,0.5s-0.4,0.7-0.4,1.3c0,0.4,0.1,0.7,0.2,1s0.4,0.4,0.6,0.6
			c0.2,0.1,0.6,0.3,1,0.4c0.5,0.2,1,0.4,1.3,0.6c0.3,0.2,0.6,0.5,0.8,0.9s0.3,1,0.3,1.6c0,0.5-0.1,1-0.3,1.5s-0.5,0.9-0.9,1.1
			c-0.4,0.3-0.9,0.4-1.5,0.4C177.7,186.6,177.3,186.4,176.8,186.2z"/>
	</g>
	<g class="st0">
		<path d="M23.6,143.4c0.9,0.8,1.5,1.7,2,2.8c0.5,1.1,0.8,2.3,0.8,3.6c0,1.6-0.4,3-1.1,4.3c-0.7,1.3-1.8,2.3-3.2,3
			c-1.4,0.7-3,1.1-4.9,1.1H6.6v-31.4h10.1c1.9,0,3.6,0.4,4.9,1.1c1.4,0.7,2.4,1.7,3,2.9c0.7,1.2,1,2.6,1,4.1c0,1.9-0.5,3.4-1.4,4.6
			c-0.9,1.2-2.1,2.1-3.6,2.6C21.8,142.2,22.7,142.7,23.6,143.4z M10.3,140.4h6.2c1.7,0,3.1-0.5,4-1.4c0.9-0.9,1.4-2.1,1.4-3.7
			s-0.5-2.8-1.4-3.7c-0.9-0.9-2.3-1.4-4.1-1.4h-6.1V140.4z M21.1,153.4c1-1,1.5-2.3,1.5-4c0-1.7-0.5-3.1-1.6-4.1
			c-1.1-1-2.5-1.5-4.3-1.5h-6.4v11.1h6.5C18.7,154.8,20.1,154.3,21.1,153.4z"/>
		<path d="M41,156.5c-2.2-1.4-3.9-3.3-5.1-5.7c-1.3-2.4-1.9-5.2-1.9-8.3c0-3.1,0.6-5.8,1.9-8.3c1.3-2.4,3-4.4,5.1-5.7
			c2.2-1.4,4.6-2,7.2-2c2.6,0,5.1,0.7,7.2,2c2.2,1.4,3.9,3.3,5.1,5.7c1.2,2.4,1.9,5.2,1.9,8.3s-0.6,5.9-1.9,8.3
			c-1.2,2.4-2.9,4.3-5.1,5.7c-2.2,1.4-4.6,2-7.2,2C45.6,158.5,43.2,157.8,41,156.5z M53.5,153.4c1.6-1,2.8-2.5,3.7-4.4
			c0.9-1.9,1.4-4.1,1.4-6.6c0-2.5-0.5-4.7-1.4-6.6c-0.9-1.9-2.1-3.3-3.7-4.3c-1.6-1-3.4-1.5-5.4-1.5c-2,0-3.8,0.5-5.4,1.5
			c-1.6,1-2.8,2.5-3.7,4.3c-0.9,1.9-1.4,4.1-1.4,6.6c0,2.5,0.5,4.7,1.4,6.6c0.9,1.9,2.1,3.3,3.7,4.4c1.6,1,3.4,1.5,5.3,1.5
			C50.2,154.9,52,154.4,53.5,153.4z"/>
		<path d="M93.4,158.2h-3.7l-14.8-25v25h-3.7v-31.4h3.7l14.8,25v-25h3.7V158.2z"/>
		<path d="M120.3,151.2H108l-2.3,7h-3.9L112,127h4.3l10.2,31.2h-3.9L120.3,151.2z M119.3,147.9l-5.1-15.9l-5.1,15.9H119.3z"/>
		<path d="M157.1,158.2h-3.7l-14.8-25v25h-3.7v-31.4h3.7l14.8,25v-25h3.7V158.2z"/>
		<path d="M170.4,154.6h13.8v3.6H166v-3.2l13.7-24.6h-13.5v-3.6h17.9v3.2L170.4,154.6z"/>
		<path d="M209.9,151.2h-12.3l-2.3,7h-3.9l10.2-31.2h4.3l10.2,31.2h-3.9L209.9,151.2z M208.8,147.9l-5.1-15.9l-5.1,15.9H208.8z"/>
	</g>
	<polygon class="st1" points="112.4,18.4 127.3,57.3 132.4,55.5 112.5,4.3 92.3,55.6 97.4,57.3 	"/>
	<polygon class="st1" points="128.7,67.5 114.6,90.9 112.4,90.9 110.1,90.9 96,67.5 18.4,40.3 54.3,106.4 78.5,106.4 85.3,88.7 
		79.8,87.2 73.9,101 59,100.8 28.9,49.6 92.5,71.5 107.4,97.2 112.3,97.2 117.4,97.2 132.2,71.5 195.8,49.6 165.7,100.8 150.8,101 
		145,87.2 139.4,88.7 146.2,106.4 170.5,106.4 206.4,40.3 	"/>
</g>
</svg>
