<?xml version="1.0" encoding="utf-8"?>
<!-- Generator: Adobe Illustrator 26.0.3, SVG Export Plug-In . SVG Version: 6.00 Build 0)  -->
<svg version="1.1" id="Layer_1" xmlns="http://www.w3.org/2000/svg" xmlns:xlink="http://www.w3.org/1999/xlink" x="0px" y="0px"
	 viewBox="0 0 225.3 191.1" style="enable-background:new 0 0 225.3 191.1;" xml:space="preserve">
<style type="text/css">
	.st0{enable-background:new    ;}
	.st1{fill:#FCFDFF;}
	.st2{fill:#B99435;}
	.st3{fill:#B68F2E;}
</style>
<g>
	<g class="st0">
		<path class="st1" d="M49.8,183.7h-3.5l-0.7,2.4h-1.1l2.9-10.9h1.2l2.9,10.9h-1.1L49.8,183.7z M49.5,182.5L48,177l-1.5,5.5H49.5z"
			/>
		<path class="st1" d="M64.8,180.6c-0.5,0.6-1.2,0.9-2.1,0.9h-1.6v4.6H60v-11h2.6c0.9,0,1.6,0.3,2.1,0.9c0.5,0.6,0.7,1.4,0.7,2.3
			C65.5,179.3,65.2,180,64.8,180.6z M64,179.8c0.3-0.3,0.4-0.8,0.4-1.5c0-1.4-0.6-2-1.7-2h-1.6v4h1.6
			C63.2,180.4,63.7,180.2,64,179.8z"/>
		<path class="st1" d="M78.8,183.7h-3.5l-0.7,2.4h-1.1l2.9-10.9h1.2l2.9,10.9h-1.1L78.8,183.7z M78.5,182.5L77,177l-1.5,5.5H78.5z"
			/>
		<path class="st1" d="M93.3,186.1l-1.9-4.5h-1.3v4.5H89v-11h2.6c0.6,0,1.1,0.1,1.6,0.4s0.7,0.7,0.9,1.1s0.3,1,0.3,1.7
			c0,0.8-0.2,1.4-0.5,2s-0.8,1-1.4,1.1l2,4.6L93.3,186.1L93.3,186.1z M90.1,180.5h1.6c0.6,0,1-0.2,1.3-0.6c0.3-0.4,0.4-0.9,0.4-1.5
			c0-0.7-0.1-1.2-0.4-1.5s-0.7-0.5-1.3-0.5h-1.6V180.5z"/>
		<path class="st1" d="M108.3,175.2v1.2h-2.2v9.8H105v-9.8h-2.2v-1.2H108.3z"/>
		<path class="st1" d="M125.1,175.2v10.9H124V178l-2.7,8.1h-0.7l-2.7-8.1v8.1h-1.1v-10.9h1.1l3,9l3-9L125.1,175.2L125.1,175.2z"/>
		<path class="st1" d="M135.2,176.3v3.7h3v1.2h-3v3.8h3.3v1.2h-4.4v-11h4.4v1.2L135.2,176.3L135.2,176.3z"/>
		<path class="st1" d="M153.7,186.1h-1.1l-4.3-8.7v8.7h-1.1v-11h1.1l4.3,8.7v-8.7h1.1V186.1z"/>
		<path class="st1" d="M167.7,175.2v1.2h-2.2v9.8h-1.1v-9.8h-2.2v-1.2H167.7z"/>
		<path class="st1" d="M177.3,185.8c-0.4-0.3-0.8-0.6-1-1.1s-0.4-1-0.4-1.6h1.1c0,0.5,0.2,0.9,0.5,1.3s0.7,0.5,1.2,0.5
			s0.9-0.2,1.2-0.5s0.4-0.8,0.4-1.3c0-0.4-0.1-0.8-0.3-1c-0.2-0.3-0.4-0.5-0.6-0.6s-0.6-0.3-1-0.4c-0.5-0.2-1-0.4-1.3-0.6
			s-0.6-0.5-0.8-0.9s-0.3-0.9-0.3-1.6c0-0.6,0.1-1.1,0.3-1.6s0.5-0.8,0.9-1.1s0.9-0.4,1.4-0.4c0.8,0,1.4,0.3,1.9,0.8s0.8,1.2,0.8,2
			h-1.2c0-0.4-0.2-0.8-0.5-1.1s-0.7-0.5-1.1-0.5c-0.4,0-0.8,0.2-1.1,0.5s-0.4,0.7-0.4,1.3c0,0.4,0.1,0.7,0.2,1s0.4,0.4,0.6,0.6
			c0.2,0.1,0.6,0.3,1,0.4c0.5,0.2,1,0.4,1.3,0.6c0.3,0.2,0.6,0.5,0.8,0.9s0.3,1,0.3,1.6c0,0.5-0.1,1-0.3,1.5s-0.5,0.9-0.9,1.1
			c-0.4,0.3-0.9,0.4-1.5,0.4C178.2,186.2,177.8,186.1,177.3,185.8z"/>
	</g>
	<g class="st0">
		<path class="st2" d="M24.1,143.1c0.9,0.8,1.5,1.7,2,2.8c0.5,1.1,0.8,2.3,0.8,3.6c0,1.6-0.4,3-1.1,4.3c-0.7,1.3-1.8,2.3-3.2,3
			c-1.4,0.7-3,1.1-4.9,1.1H7.2v-31.4h10.1c1.9,0,3.6,0.4,4.9,1.1c1.4,0.7,2.4,1.7,3,2.9c0.7,1.2,1,2.6,1,4.1c0,1.9-0.5,3.4-1.4,4.6
			c-0.9,1.2-2.1,2.1-3.6,2.6C22.3,141.9,23.3,142.3,24.1,143.1z M10.9,140h6.2c1.7,0,3.1-0.5,4-1.4c0.9-0.9,1.4-2.1,1.4-3.7
			s-0.5-2.8-1.4-3.7c-0.9-0.9-2.3-1.4-4.1-1.4h-6.1V140z M21.7,153c1-1,1.5-2.3,1.5-4c0-1.7-0.5-3.1-1.6-4.1c-1.1-1-2.5-1.5-4.3-1.5
			h-6.4v11.1h6.5C19.2,154.5,20.6,154,21.7,153z"/>
		<path class="st2" d="M41.6,156.1c-2.2-1.4-3.9-3.3-5.1-5.7c-1.3-2.4-1.9-5.2-1.9-8.3c0-3.1,0.6-5.8,1.9-8.3c1.3-2.4,3-4.4,5.1-5.7
			c2.2-1.4,4.6-2,7.2-2c2.6,0,5.1,0.7,7.2,2c2.2,1.4,3.9,3.3,5.1,5.7c1.2,2.4,1.9,5.2,1.9,8.3s-0.6,5.9-1.9,8.3
			c-1.2,2.4-2.9,4.3-5.1,5.7c-2.2,1.4-4.6,2-7.2,2C46.1,158.2,43.7,157.5,41.6,156.1z M54.1,153.1c1.6-1,2.8-2.5,3.7-4.4
			c0.9-1.9,1.4-4.1,1.4-6.6c0-2.5-0.5-4.7-1.4-6.6c-0.9-1.9-2.1-3.3-3.7-4.3c-1.6-1-3.4-1.5-5.4-1.5c-2,0-3.8,0.5-5.4,1.5
			c-1.6,1-2.8,2.5-3.7,4.3c-0.9,1.9-1.4,4.1-1.4,6.6c0,2.5,0.5,4.7,1.4,6.6c0.9,1.9,2.1,3.3,3.7,4.4c1.6,1,3.4,1.5,5.3,1.5
			C50.7,154.6,52.5,154.1,54.1,153.1z"/>
		<path class="st2" d="M94,157.9h-3.7l-14.8-25v25h-3.7v-31.4h3.7l14.8,25v-25H94V157.9z"/>
		<path class="st2" d="M120.9,150.9h-12.3l-2.3,7h-3.9l10.2-31.2h4.3l10.2,31.2h-3.9L120.9,150.9z M119.8,147.5l-5.1-15.9l-5.1,15.9
			H119.8z"/>
		<path class="st2" d="M157.6,157.9h-3.7l-14.8-25v25h-3.7v-31.4h3.7l14.8,25v-25h3.7V157.9z"/>
		<path class="st2" d="M171,154.3h13.8v3.6h-18.2v-3.2l13.7-24.6h-13.5v-3.6h17.9v3.2L171,154.3z"/>
		<path class="st2" d="M210.4,150.9h-12.3l-2.3,7h-3.9l10.2-31.2h4.3l10.2,31.2h-3.9L210.4,150.9z M209.4,147.5l-5.1-15.9l-5.1,15.9
			H209.4z"/>
	</g>
	<polygon class="st3" points="113,18 127.9,57 133,55.2 113.1,4 92.9,55.2 98,57 	"/>
	<polygon class="st3" points="129.2,67.1 115.1,90.6 112.9,90.6 110.6,90.6 96.5,67.1 18.9,39.9 54.8,106 79,106 85.8,88.4 
		80.3,86.9 74.4,100.7 59.5,100.4 29.4,49.2 93,71.1 107.9,96.8 112.8,96.8 117.9,96.8 132.7,71.1 196.3,49.2 166.2,100.4 
		151.3,100.7 145.5,86.9 139.9,88.4 146.7,106 171,106 206.9,39.9 	"/>
</g>
</svg>
