<?xml version="1.0" encoding="utf-8"?>
<!-- Generator: Adobe Illustrator 26.0.3, SVG Export Plug-In . SVG Version: 6.00 Build 0)  -->
<svg version="1.1" id="Layer_1" xmlns="http://www.w3.org/2000/svg" xmlns:xlink="http://www.w3.org/1999/xlink" x="0px" y="0px"
	 viewBox="0 0 110 110" style="enable-background:new 0 0 110 110;" xml:space="preserve">
<style type="text/css">
	.st0{clip-path:url(#SVGID_00000029007218467067581920000011586033036292504752_);fill:#0C2522;}
	.st1{fill:#B68F2E;}
</style>
<g>
	<defs>
		<circle id="SVGID_1_" cx="55" cy="55" r="55"/>
	</defs>
	<clipPath id="SVGID_00000044878370400270089570000016856573546636441789_">
		<use xlink:href="#SVGID_1_"  style="overflow:visible;"/>
	</clipPath>
	
		<rect x="-0.1" style="clip-path:url(#SVGID_00000044878370400270089570000016856573546636441789_);fill:#0C2522;" width="110" height="110"/>
</g>
<g>
	<polygon class="st1" points="47.1,57 9.3,43.8 47.1,57.1 	"/>
	<polygon class="st1" points="55.1,33.1 62.3,52.1 64.8,51.2 55.1,26.3 45.3,51.2 47.8,52.1 	"/>
	<polygon class="st1" points="62.9,57.1 56.1,68.5 55,68.5 53.9,68.5 47.1,57.1 9.2,43.8 26.7,76 38.5,76 41.8,67.4 39.1,66.7 
		36.3,73.4 29,73.3 14.4,48.3 45.4,59 52.6,71.5 55,71.5 57.4,71.5 64.6,59 95.6,48.3 81,73.3 73.7,73.4 70.9,66.7 68.2,67.4 
		71.5,76 83.3,76 100.8,43.8 	"/>
</g>
</svg>
