<?xml version="1.0" encoding="utf-8"?>
<!-- Generator: Adobe Illustrator 26.0.3, SVG Export Plug-In . SVG Version: 6.00 Build 0)  -->
<svg version="1.1" id="Layer_1" xmlns="http://www.w3.org/2000/svg" xmlns:xlink="http://www.w3.org/1999/xlink" x="0px" y="0px"
	 viewBox="0 0 283.5 283.5" style="enable-background:new 0 0 283.5 283.5;" xml:space="preserve">
<style type="text/css">
	.st0{fill:#0C2522;}
	.st1{enable-background:new    ;}
	.st2{fill:#FCFDFF;}
	.st3{fill:#B99435;}
	.st4{fill:#B68F2E;}
</style>
<g>
	<rect x="0" y="0" class="st0" width="283.5" height="283.5"/>
	<g>
		<g class="st1">
			<path class="st2" d="M79.5,216.8H76l-0.7,2.4h-1.1l2.9-10.9h1.2l2.9,10.9h-1.1L79.5,216.8z M79.2,215.6l-1.5-5.5l-1.5,5.5H79.2z"
				/>
			<path class="st2" d="M94.3,213.7c-0.5,0.6-1.2,0.9-2.1,0.9h-1.6v4.6h-1.1v-11h2.6c0.9,0,1.6,0.3,2.1,0.9s0.7,1.4,0.7,2.3
				C94.9,212.4,94.7,213.1,94.3,213.7z M93.4,212.9c0.3-0.3,0.4-0.8,0.4-1.5c0-1.4-0.6-2-1.7-2h-1.6v4h1.6
				C92.7,213.5,93.2,213.3,93.4,212.9z"/>
			<path class="st2" d="M108.1,216.8h-3.5l-0.7,2.4h-1.1l2.9-10.9h1.2l2.9,10.9h-1.1L108.1,216.8z M107.8,215.6l-1.5-5.5l-1.5,5.5
				H107.8z"/>
			<path class="st2" d="M122.4,219.2l-1.9-4.5h-1.3v4.5h-1.1v-11h2.6c0.6,0,1.1,0.1,1.6,0.4c0.4,0.3,0.7,0.7,0.9,1.1
				c0.2,0.5,0.3,1,0.3,1.7c0,0.8-0.2,1.4-0.5,2s-0.8,1-1.4,1.1l2,4.6L122.4,219.2L122.4,219.2z M119.2,213.6h1.6
				c0.6,0,1-0.2,1.3-0.6s0.4-0.9,0.4-1.5s-0.1-1.2-0.4-1.5s-0.7-0.5-1.3-0.5h-1.6V213.6z"/>
			<path class="st2" d="M137.2,208.3v1.2H135v9.8h-1.1v-9.8h-2.2v-1.2H137.2z"/>
			<path class="st2" d="M153.8,208.3v10.9h-1.1v-8.1l-2.7,8.1h-0.7l-2.7-8.1v8.1h-1.1v-10.9h1.1l3,9l3-9H153.8z"/>
			<path class="st2" d="M163.7,209.4v3.7h3v1.2h-3v3.8h3.3v1.2h-4.4v-11h4.4v1.2L163.7,209.4L163.7,209.4z"/>
			<path class="st2" d="M182,219.2h-1.1l-4.3-8.7v8.7h-1.1v-11h1.1l4.3,8.7v-8.7h1.1V219.2z"/>
			<path class="st2" d="M195.8,208.3v1.2h-2.2v9.8h-1.1v-9.8h-2.2v-1.2H195.8z"/>
			<path class="st2" d="M205.3,218.9c-0.4-0.3-0.8-0.6-1-1.1s-0.4-1-0.4-1.6h1.1c0,0.5,0.2,0.9,0.5,1.3c0.3,0.4,0.7,0.5,1.2,0.5
				s0.9-0.2,1.2-0.5s0.4-0.8,0.4-1.3c0-0.4-0.1-0.8-0.3-1c-0.2-0.3-0.4-0.5-0.6-0.6c-0.3-0.1-0.6-0.3-1-0.4c-0.5-0.2-1-0.4-1.3-0.6
				c-0.3-0.2-0.6-0.5-0.8-0.9s-0.3-0.9-0.3-1.6c0-0.6,0.1-1.1,0.3-1.6s0.5-0.8,0.9-1.1s0.9-0.4,1.4-0.4c0.8,0,1.4,0.3,1.9,0.8
				s0.8,1.2,0.8,2h-1.2c0-0.4-0.2-0.8-0.5-1.1s-0.7-0.5-1.1-0.5c-0.4,0-0.8,0.2-1.1,0.5s-0.4,0.7-0.4,1.3c0,0.4,0.1,0.7,0.2,1
				c0.2,0.3,0.4,0.4,0.6,0.6c0.2,0.1,0.6,0.3,1,0.4c0.5,0.2,1,0.4,1.3,0.6c0.3,0.2,0.6,0.5,0.8,0.9s0.3,1,0.3,1.6
				c0,0.5-0.1,1-0.3,1.5s-0.5,0.9-0.9,1.1s-0.9,0.4-1.5,0.4C206.2,219.3,205.7,219.2,205.3,218.9z"/>
		</g>
	</g>
	<g class="st1">
		<path class="st3" d="M56.1,176.2c0.9,0.8,1.5,1.7,2,2.8c0.5,1.1,0.8,2.3,0.8,3.6c0,1.6-0.4,3-1.1,4.3c-0.7,1.3-1.8,2.3-3.2,3
			c-1.4,0.7-3,1.1-4.9,1.1H39.1v-31.4h10.2c1.9,0,3.6,0.4,4.9,1.1c1.4,0.7,2.4,1.7,3,2.9c0.7,1.2,1,2.6,1,4.1c0,1.9-0.5,3.4-1.4,4.6
			s-2.1,2.1-3.6,2.6C54.3,175,55.2,175.4,56.1,176.2z M42.8,173.1H49c1.7,0,3.1-0.5,4-1.4c0.9-0.9,1.4-2.1,1.4-3.7
			c0-1.6-0.5-2.8-1.4-3.7c-0.9-0.9-2.3-1.4-4.1-1.4h-6.1V173.1z M53.6,186.1c1-1,1.5-2.3,1.5-4c0-1.7-0.5-3.1-1.6-4.1
			c-1.1-1-2.5-1.5-4.4-1.5h-6.4v11.1h6.5C51.2,187.6,52.6,187.1,53.6,186.1z"/>
		<path class="st3" d="M72.6,189.2c-2.2-1.4-3.9-3.3-5.1-5.7c-1.3-2.4-1.9-5.2-1.9-8.3s0.6-5.8,1.9-8.3c1.3-2.4,3-4.4,5.1-5.7
			c2.2-1.4,4.6-2,7.2-2c2.7,0,5.1,0.7,7.2,2c2.2,1.4,3.9,3.3,5.1,5.7c1.2,2.4,1.9,5.2,1.9,8.3c0,3.1-0.6,5.9-1.9,8.3
			c-1.2,2.4-3,4.3-5.1,5.7c-2.2,1.4-4.6,2-7.2,2C77.2,191.3,74.8,190.6,72.6,189.2z M85.2,186.2c1.6-1,2.8-2.5,3.7-4.4
			c0.9-1.9,1.4-4.1,1.4-6.6c0-2.5-0.5-4.7-1.4-6.6c-0.9-1.9-2.1-3.3-3.7-4.3c-1.6-1-3.4-1.5-5.4-1.5c-2,0-3.8,0.5-5.4,1.5
			c-1.6,1-2.8,2.5-3.7,4.3c-0.9,1.9-1.4,4.1-1.4,6.6c0,2.5,0.5,4.7,1.4,6.6c0.9,1.9,2.2,3.3,3.7,4.4c1.6,1,3.4,1.5,5.3,1.5
			C81.8,187.7,83.6,187.2,85.2,186.2z"/>
		<path class="st3" d="M124.2,191h-3.7l-14.9-25v25h-3.7v-31.4h3.7l14.9,25v-25h3.7V191z"/>
		<path class="st3" d="M150.2,184h-12.4l-2.3,7h-3.9l10.2-31.2h4.3l10.2,31.2h-3.9L150.2,184z M149.1,180.6l-5.1-15.9l-5.1,15.9
			H149.1z"/>
		<path class="st3" d="M186.1,191h-3.7l-14.9-25v25h-3.7v-31.4h3.7l14.9,25v-25h3.7V191z"/>
		<path class="st3" d="M198.5,187.4h13.8v3.6h-18.2v-3.2l13.7-24.6h-13.6v-3.6h18v3.2L198.5,187.4z"/>
		<path class="st3" d="M237.1,184h-12.4l-2.3,7h-3.9l10.2-31.2h4.3l10.2,31.2h-3.9L237.1,184z M236,180.6l-5.1-15.9l-5.1,15.9H236z"
			/>
	</g>
	<g>
		<polygon class="st4" points="125.4,100.1 47.8,73 125.5,100.3 		"/>
		<polygon class="st4" points="141.9,51.1 156.7,90.1 161.9,88.3 142,37.1 121.8,88.3 126.9,90.1 		"/>
		<polygon class="st4" points="158.1,100.3 144,123.7 141.8,123.7 139.5,123.7 125.4,100.3 47.7,73 83.7,139.1 107.9,139.1 
			114.7,121.5 109.2,120 103.3,133.8 88.4,133.5 58.3,82.3 121.9,104.2 136.8,130 141.7,130 146.8,130 161.6,104.2 225.2,82.3 
			195.1,133.5 180.2,133.8 174.4,120 168.8,121.5 175.6,139.1 199.9,139.1 235.8,73 		"/>
	</g>
</g>
</svg>
